<svg width="138" height="32" viewBox="0 0 138 32" fill="none" xmlns="http://www.w3.org/2000/svg">
<g clip-path="url(#clip0_122_1381)">
<path d="M41.4152 10.3029C41.4152 9.93203 41.7108 9.63477 42.0792 9.63477H44.4814C44.8498 9.63477 45.1454 9.93203 45.1454 10.3029V21.8657C45.1454 22.2366 44.8498 22.5338 44.4814 22.5338H42.0792C41.7108 22.5338 41.4152 22.2366 41.4152 21.8657V10.3029Z" fill="#00A758"/>
<path d="M47.3242 10.3029C47.3242 9.93203 47.6198 9.63477 47.9882 9.63477H50.3904C50.7588 9.63477 51.0544 9.93203 51.0544 10.3029V21.8657C51.0544 22.2366 50.7588 22.5338 50.3904 22.5338H47.9882C47.6198 22.5338 47.3242 22.2366 47.3242 21.8657V10.3029Z" fill="#00A758"/>
<path d="M32.0273 13.6289V10.3029C32.0273 9.93203 32.3229 9.63477 32.6913 9.63477H35.0935C35.4619 9.63477 35.7575 9.93203 35.7575 10.3029V21.8657C35.7575 22.2366 35.4619 22.5338 35.0935 22.5338H32.6913C32.3229 22.5338 32.0273 22.2366 32.0273 21.8657V18.5397L29.5187 13.8797C29.3659 13.5992 29.0703 13.4277 28.7494 13.4277H26.7652C26.1742 13.4277 25.8531 14.0908 26.1742 14.5838L29.5442 20.0053V21.8657C29.5442 22.2366 29.2486 22.5338 28.8802 22.5338H26.478C26.1096 22.5338 25.814 22.2366 25.814 21.8657V20.0053L22.444 14.5838C22.1229 14.0908 22.444 13.4277 23.0349 13.4277H25.0192C25.34 13.4277 25.6356 13.5992 25.7885 13.8797L28.2971 18.5397V10.3029C28.2971 9.93203 28.5927 9.63477 28.9611 9.63477H31.3633C31.7317 9.63477 32.0273 9.93203 32.0273 10.3029V13.6289H32.0273Z" fill="#00A758"/>
<path d="M59.7559 21.8657V19.5764C59.7559 19.2055 60.0515 18.9082 60.4199 18.9082H62.8221C63.1905 18.9082 63.4861 19.2055 63.4861 19.5764V21.8657C63.4861 22.2366 63.1905 22.5338 62.8221 22.5338H60.4199C60.0515 22.5338 59.7559 22.2366 59.7559 21.8657Z" fill="#00A758"/>
<path d="M65.6396 10.3029C65.6396 9.93203 65.9352 9.63477 66.3036 9.63477H68.7058C69.0742 9.63477 69.3698 9.93203 69.3698 10.3029V14.5005C69.3698 14.8714 69.6654 15.1686 70.0338 15.1686H73.7894C74.1578 15.1686 74.4534 14.8714 74.4534 14.5005V10.3029C74.4534 9.93203 74.749 9.63477 75.1174 9.63477H77.5196C77.888 9.63477 78.1836 9.93203 78.1836 10.3029V21.8657C78.1836 22.2366 77.888 22.5338 77.5196 22.5338H75.1174C74.749 22.5338 74.4534 22.2366 74.4534 21.8657V18.2951C74.4534 17.9242 74.1578 17.627 73.7894 17.627H70.0338C69.6654 17.627 69.3698 17.9242 69.3698 18.2951V21.8657C69.3698 22.2366 69.0742 22.5338 68.7058 22.5338H66.3036C65.9352 22.5338 65.6396 22.2366 65.6396 21.8657V10.3029Z" fill="#00A758"/>
<path d="M80.3994 10.3029C80.3994 9.93203 80.695 9.63477 81.0634 9.63477H90.2388C90.6072 9.63477 90.9028 9.93203 90.9028 10.3029V12.5922C90.9028 12.9631 90.6072 13.2604 90.2388 13.2604H87.8366C87.4682 13.2604 87.1726 13.5576 87.1726 13.9285V21.8657C87.1726 22.2366 86.877 22.5338 86.5086 22.5338H84.1064C83.738 22.5338 83.4424 22.2366 83.4424 21.8657V13.9285C83.4424 13.5576 83.1468 13.2604 82.7784 13.2604H81.0634C80.695 13.2604 80.3994 12.9631 80.3994 12.5922V10.3029Z" fill="#00A758"/>
<path d="M92.5781 10.3029C92.5781 9.93203 92.8737 9.63477 93.2421 9.63477H102.418C102.786 9.63477 103.082 9.93203 103.082 10.3029V12.5922C103.082 12.9631 102.786 13.2604 102.418 13.2604H98.6621C98.2937 13.2604 97.9981 13.5576 97.9981 13.9285V14.5005C97.9981 14.8714 98.2937 15.1686 98.6621 15.1686H101.703C102.071 15.1686 102.367 15.4659 102.367 15.8368V17.627C102.367 17.9979 102.071 18.2951 101.703 18.2951H98.6621C98.2937 18.2951 97.9981 18.5924 97.9981 18.9633V19.5353C97.9981 19.9062 98.2937 20.2034 98.6621 20.2034H102.418C102.786 20.2034 103.082 20.5007 103.082 20.8716V21.8657C103.082 22.2366 102.786 22.5338 102.418 22.5338H93.2421C92.8737 22.5338 92.5781 22.2366 92.5781 21.8657V10.3029Z" fill="#00A758"/>
<path d="M16.3477 0C7.32017 0 0 7.34424 0 16.4008C0 25.4574 7.32017 32.8016 16.3477 32.8016C25.3752 32.8016 32.6954 25.4574 32.6954 16.4008C32.6954 7.34424 25.3752 0 16.3477 0ZM26.9679 19.5764C26.9679 20.2479 26.4279 20.7913 25.761 20.7913H22.699C22.0321 20.7913 21.4921 20.2479 21.4921 19.5764V16.2088C21.4921 15.5373 20.9522 14.994 20.2852 14.994C19.6183 14.994 19.0783 15.5373 19.0783 16.2088V19.5764C19.0783 20.2479 18.5384 20.7913 17.8715 20.7913H14.8095C14.1426 20.7913 13.6026 20.2479 13.6026 19.5764V16.2088C13.6026 15.5373 13.0626 14.994 12.3957 14.994C11.7288 14.994 11.1888 15.5373 11.1888 16.2088V19.5764C11.1888 20.2479 10.6489 20.7913 9.98196 20.7913H6.91992C6.25302 20.7913 5.71307 20.2479 5.71307 19.5764V13.0876C5.71307 12.788 5.84139 12.5019 6.07251 12.2992L15.3184 4.27479C15.8073 3.84714 16.5373 3.84714 17.0262 4.27479L26.2721 12.2992C26.5032 12.5019 26.6315 12.788 26.6315 13.0876L26.9679 19.5764Z" fill="#00A758"/>
<path d="M112.552 13.63V21.8668C112.552 22.2377 112.256 22.5349 111.888 22.5349H109.486C109.117 22.5349 108.822 22.2377 108.822 21.8668V14.7449C108.822 14.374 108.526 14.0768 108.158 14.0768C107.789 14.0768 107.494 14.374 107.494 14.7449V21.8668C107.494 22.2377 107.198 22.5349 106.83 22.5349H104.427C104.059 22.5349 103.763 22.2377 103.763 21.8668V10.304C103.763 9.9331 104.059 9.63584 104.427 9.63584H106.396C106.69 9.63584 106.96 9.78178 107.113 10.0285L112.347 17.9099C112.475 18.1066 112.705 18.2275 112.96 18.2275C113.277 18.2275 113.547 17.9557 113.547 17.636V10.304C113.547 9.9331 113.843 9.63584 114.211 9.63584H116.614C116.982 9.63584 117.278 9.9331 117.278 10.304V21.8668C117.278 22.2377 116.982 22.5349 116.614 22.5349H114.645C114.351 22.5349 114.08 22.3889 113.928 22.1422L108.694 14.2608C108.566 14.064 108.335 13.9432 108.081 13.9432C107.763 13.9432 107.494 14.2149 107.494 14.5346V21.8668H112.552V13.63Z" fill="#00A758"/>
<path d="M119.527 10.3029C119.527 9.93203 119.823 9.63477 120.191 9.63477H129.367C129.735 9.63477 130.031 9.93203 130.031 10.3029V12.5922C130.031 12.9631 129.735 13.2604 129.367 13.2604H125.611C125.243 13.2604 124.947 13.5576 124.947 13.9285V14.5005C124.947 14.8714 125.243 15.1686 125.611 15.1686H128.652C129.02 15.1686 129.316 15.4659 129.316 15.8368V17.627C129.316 17.9979 129.02 18.2951 128.652 18.2951H125.611C125.243 18.2951 124.947 18.5924 124.947 18.9633V19.5353C124.947 19.9062 125.243 20.2034 125.611 20.2034H129.367C129.735 20.2034 130.031 20.5007 130.031 20.8716V21.8657C130.031 22.2366 129.735 22.5338 129.367 22.5338H120.191C119.823 22.5338 119.527 22.2366 119.527 21.8657V10.3029Z" fill="#00A758"/>
<path d="M137.285 22.5338H134.909C134.592 22.5338 134.296 22.3879 134.144 22.1412L132.175 19.1641C132.023 18.9174 131.727 18.7715 131.41 18.7715C131.041 18.7715 130.746 19.0687 130.746 19.4396V21.8657C130.746 22.2366 130.45 22.5338 130.082 22.5338H127.68C127.311 22.5338 127.016 22.2366 127.016 21.8657V10.3029C127.016 9.93203 127.311 9.63477 127.68 9.63477H133.198C135.344 9.63477 137.131 11.4283 137.131 13.5826C137.131 14.9691 136.388 16.1755 135.267 16.8804C135.165 16.9471 135.114 17.0637 135.14 17.1803C135.165 17.2969 135.267 17.3886 135.37 17.4136L137.977 21.1008C138.273 21.569 137.953 22.2072 137.388 22.2072L137.285 22.5338ZM131.957 14.2441C132.326 14.2441 132.621 13.9469 132.621 13.576C132.621 13.2051 132.326 12.9079 131.957 12.9079H131.41C131.041 12.9079 130.746 13.2051 130.746 13.576V14.2441C130.746 14.615 131.041 14.9122 131.41 14.9122H131.957V14.2441Z" fill="#00A758"/>
<path d="M53.1797 10.3029C53.1797 9.93203 53.4753 9.63477 53.8437 9.63477H59.3617C61.5078 9.63477 63.2944 11.4283 63.2944 13.5826C63.2944 14.9691 62.5512 16.1755 61.4301 16.8804C61.3281 16.9471 61.2771 17.0637 61.3026 17.1803C61.3281 17.2969 61.4301 17.3886 61.5323 17.4136L64.1397 21.1008C64.4353 21.569 64.1143 22.2072 63.5488 22.2072H61.1721C60.8555 22.2072 60.5599 22.0612 60.4069 21.8145L58.4382 18.8374C58.2852 18.5907 57.9896 18.4448 57.673 18.4448C57.3046 18.4448 57.009 18.742 57.009 19.1129V21.539C57.009 21.9099 56.7134 22.2072 56.345 22.2072H53.9427C53.5743 22.2072 53.2787 21.9099 53.2787 21.539V10.3029H53.1797ZM58.12 14.2441C58.4884 14.2441 58.784 13.9469 58.784 13.576C58.784 13.2051 58.4884 12.9079 58.12 12.9079H57.573C57.2046 12.9079 56.909 13.2051 56.909 13.576V14.2441C56.909 14.615 57.2046 14.9122 57.573 14.9122H58.12V14.2441Z" fill="#00A758"/>
</g>
<defs>
<clipPath id="clip0_122_1381">
<rect width="137.285" height="32" fill="white"/>
</clipPath>
</defs>
</svg>
